<svg width="32" height="32" viewBox="0 0 32 32" fill="none" xmlns="http://www.w3.org/2000/svg">
<path d="M30.7143 2.0047L21.6565 5.62781L10.606 1.98476C10.3915 1.91395 10.1576 1.92726 9.96429 2.00463L0.589311 5.75463C0.233375 5.897 0 6.24175 0 6.62513V29.1251C0 29.7907 0.673811 30.2402 1.28568 29.9955L10.3435 26.3724L21.3893 30.014C21.4406 30.0311 21.4364 30.0276 21.4731 30.0378C21.5356 30.0378 21.7353 30.1169 22.0395 29.994L31.4107 26.2455C31.7666 26.1031 32 25.7585 32 25.3751V2.87513C31.9999 2.21301 31.3299 1.75857 30.7143 2.0047ZM9.37498 24.7403L1.875 27.7403V7.25981L9.37498 4.25982V24.7403ZM20.75 17.6081C20.7392 17.6069 20.7287 17.6048 20.7178 17.604C20.2032 17.564 19.7066 17.4439 19.2419 17.2469C18.7652 17.0448 18.2148 17.2673 18.0128 17.744C17.8107 18.2207 18.0333 18.771 18.51 18.9732C19.4283 19.3625 20.4448 19.5039 20.75 19.47V27.8289L11.25 24.697V13.1554C11.5095 13.1613 11.7687 13.1874 12.0217 13.2359C12.5309 13.3334 13.0216 12.9996 13.1189 12.4916C13.2163 11.9831 12.8831 11.4919 12.3746 11.3944C12.0056 11.3237 11.6278 11.2852 11.25 11.2791V4.17132L20.75 7.30319V17.6081ZM30.1249 24.7404L22.625 27.7404V7.25981L30.1249 4.25982V24.7404Z" fill="#EBEBEB"/>
<path d="M5.28044 17.9713C4.78926 17.8074 4.25832 18.073 4.09457 18.5642L3.79807 19.4535C3.63432 19.9447 3.89976 20.4757 4.39094 20.6394C4.88157 20.803 5.41294 20.5382 5.57682 20.0465L5.87332 19.1572C6.03713 18.666 5.77163 18.135 5.28044 17.9713Z" fill="#EBEBEB"/>
<path d="M7.82262 13.2074C7.44712 12.8509 6.85381 12.8662 6.49724 13.2416C6.00837 13.7564 5.60968 14.3539 5.31225 15.0174C5.10043 15.4899 5.31175 16.0446 5.78424 16.2564C6.25681 16.4684 6.81143 16.2567 7.02318 15.7845C7.2338 15.3147 7.51424 14.8936 7.85687 14.5328C8.21343 14.1574 8.19805 13.5639 7.82262 13.2074Z" fill="#EBEBEB"/>
<path d="M17.0625 15.244C16.9084 14.9546 16.6549 14.2921 16.0121 13.5235C15.6799 13.1263 15.0887 13.0736 14.6915 13.4057C14.2943 13.7378 14.2416 14.3291 14.5738 14.7263C15.0524 15.2986 15.2096 15.7537 15.4076 16.1255C15.6511 16.5827 16.2191 16.7555 16.6758 16.5122C17.1328 16.2688 17.306 15.701 17.0625 15.244Z" fill="#EBEBEB"/>
<path d="M26.0519 15.7126C25.6418 15.3962 25.0532 15.4721 24.7369 15.882C24.4299 16.2798 24.0581 16.6194 23.6318 16.8913C23.1953 17.1697 23.0671 17.7493 23.3456 18.1858C23.624 18.6222 24.2033 18.7507 24.6402 18.4721C25.2496 18.0834 25.7815 17.5973 26.2213 17.0276C26.5376 16.6177 26.4618 16.029 26.0519 15.7126Z" fill="#EBEBEB"/>
<path d="M27.6417 11.3723C27.1567 11.1903 26.6165 11.4361 26.4347 11.9209L26.1055 12.7987C25.8761 13.4103 26.329 14.0656 26.9832 14.0656C27.3627 14.0656 27.72 13.8334 27.8611 13.4571L28.1903 12.5793C28.3721 12.0944 28.1265 11.5541 27.6417 11.3723Z" fill="#EBEBEB"/>
</svg>
