<svg width="72" height="72" viewBox="0 0 72 72" fill="none" xmlns="http://www.w3.org/2000/svg">
<path fill-rule="evenodd" clip-rule="evenodd" d="M30.5593 47.0509L27.9443 48.5371L24.4839 45.112L25.9854 42.5237L30.5593 47.0509Z" stroke="#2F95D9" stroke-linecap="round" stroke-linejoin="round"/>
<path fill-rule="evenodd" clip-rule="evenodd" d="M27.0099 48.1426C26.6589 49.4079 25.8148 50.8414 25.26 51.3906C24.3465 52.2948 20 52.9751 20 52.9751C20 52.9751 20.7332 48.6276 21.6009 47.7688C22.1306 47.2445 23.5974 46.397 24.8896 46.0439L27.0099 48.1426Z" stroke="#2F95D9" stroke-linecap="round" stroke-linejoin="round"/>
<path fill-rule="evenodd" clip-rule="evenodd" d="M37.8584 43.8604L38.6779 46.8933C38.8163 47.4059 38.6192 48.1276 38.2433 48.4997L36.3256 50.3979C35.9471 50.7725 35.3841 50.7305 35.065 50.2999L33.0381 47.564C33.7494 47.0785 35.4587 45.8655 37.8584 43.8604Z" stroke="#2F95D9" stroke-linecap="round" stroke-linejoin="round"/>
<path fill-rule="evenodd" clip-rule="evenodd" d="M29.1839 35.2924L26.1445 34.4879C25.6267 34.3508 24.8975 34.5459 24.5215 34.918L22.6038 36.8162C22.2253 37.1908 22.2678 37.748 22.7028 38.0638L25.4508 40.0583C25.9286 39.3617 27.1245 37.6952 29.1839 35.2924Z" stroke="#2F95D9" stroke-linecap="round" stroke-linejoin="round"/>
<path fill-rule="evenodd" clip-rule="evenodd" d="M35.0038 29.0701C41.9605 22.1844 50.6031 21.6176 51.1421 22.151C51.681 22.6845 51.0881 31.2589 44.2812 37.9964C37.4742 44.7339 32.671 47.8094 32.671 47.8094C32.2303 48.1086 31.5643 48.0456 31.1848 47.67L27.2759 43.8009L25.3514 41.8961C24.9726 41.5212 24.9047 40.8593 25.2068 40.4234C25.2068 40.4234 28.0471 35.9559 35.0038 29.0701Z" stroke="#2F95D9" stroke-linecap="round" stroke-linejoin="round"/>
<path fill-rule="evenodd" clip-rule="evenodd" d="M41.0794 32.111C41.8372 32.8611 43.0659 32.8611 43.8237 32.111C44.5815 31.3609 44.5815 30.1447 43.8237 29.3946C43.0659 28.6445 41.8372 28.6445 41.0794 29.3946C40.3215 30.1447 40.3215 31.3609 41.0794 32.111Z" stroke="#2F95D9" stroke-linecap="round" stroke-linejoin="round"/>
<circle cx="36" cy="36" r="35.5" stroke="#2F95D9"/>
</svg>
