<svg width="72" height="72" viewBox="0 0 72 72" fill="none" xmlns="http://www.w3.org/2000/svg">
<path fill-rule="evenodd" clip-rule="evenodd" d="M49.4968 32.1419C49.4968 33.515 47.292 34.5234 46.8898 35.7631C46.4732 37.0477 47.6495 39.1562 46.8714 40.2258C46.4865 40.7545 45.7217 40.9113 44.914 41.0265C44.0718 41.1456 43.1828 41.219 42.6318 41.6203C41.5859 42.3822 41.2946 44.7078 40.0766 45.1937C40.0511 45.2049 40.0247 45.2151 39.9982 45.2232C38.7588 45.6266 37.1212 43.8562 35.7484 43.8562C34.3756 43.8562 32.7381 45.6266 31.4987 45.2243C31.4722 45.2162 31.4457 45.2059 31.4202 45.1948C30.2022 44.7079 29.911 42.3823 28.865 41.6203C28.3141 41.219 27.425 41.1456 26.5828 41.0265C25.7752 40.9114 25.0104 40.7545 24.6254 40.2258C23.8474 39.1562 25.0236 37.0477 24.6071 35.7631C24.2048 34.5234 22 33.515 22 32.1419C22 30.7688 24.2049 29.7603 24.6071 28.5206C25.0236 27.2361 23.8473 25.1275 24.6254 24.058C25.4106 22.9782 27.7855 23.4499 28.865 22.6634C29.9333 21.8852 30.2144 19.4771 31.4986 19.0595C32.738 18.6571 34.3755 20.4276 35.7483 20.4276C37.1212 20.4276 38.7587 18.6572 39.9981 19.0595C41.2823 19.4771 41.5633 21.8852 42.6316 22.6634C43.7112 23.4499 46.0861 22.9782 46.8712 24.058C47.6493 25.1275 46.4731 27.2361 46.8896 28.5206C47.2921 29.7603 49.4968 30.7687 49.4968 32.1419Z" stroke="#2F95D9" stroke-linecap="round" stroke-linejoin="round"/>
<path fill-rule="evenodd" clip-rule="evenodd" d="M35.5461 40.4314C40.1242 40.4314 43.8356 36.7201 43.8356 32.1419C43.8356 27.5637 40.1242 23.8524 35.5461 23.8524C30.9679 23.8524 27.2566 27.5637 27.2566 32.1419C27.2566 36.7201 30.9679 40.4314 35.5461 40.4314Z" stroke="#2F95D9" stroke-linecap="round" stroke-linejoin="round"/>
<path fill-rule="evenodd" clip-rule="evenodd" d="M43.8357 41.1838V59.4365L35.7484 51.2879L27.6611 59.4365V41.1838C28.125 41.2687 28.5502 41.391 28.8651 41.6203C29.911 42.3823 30.2022 44.7078 31.4203 45.1947C31.4457 45.2059 31.4722 45.2161 31.4987 45.2242C32.7381 45.6266 34.3756 43.8562 35.7484 43.8562C37.1213 43.8562 38.7588 45.6266 39.9982 45.2232C40.0247 45.2151 40.0511 45.2049 40.0766 45.1937C41.2947 44.7078 41.5859 42.3822 42.6318 41.6203C42.9467 41.391 43.3719 41.2687 43.8357 41.1838Z" stroke="#2F95D9" stroke-linecap="round" stroke-linejoin="round"/>
<circle cx="36" cy="36" r="35.5" stroke="#2F95D9"/>
</svg>
