<svg width="72" height="72" viewBox="0 0 72 72" fill="none" xmlns="http://www.w3.org/2000/svg">
<path fill-rule="evenodd" clip-rule="evenodd" d="M23.3723 43.5406C23.2657 43.6072 23.0651 44.0252 23.1559 44.3919C23.2909 44.9372 23.7711 45.1501 23.7711 45.1501C23.7711 45.1501 24.5223 46.1572 24.5223 46.7428C24.5223 47.3285 24.5223 47.556 24.321 48.0446C24.1197 48.5332 20.1678 49.1189 20 51.9994H25.752L31.5672 52C31.3994 49.1196 27.4475 48.5339 27.2462 48.0453C27.0448 47.5567 27.0448 47.3291 27.0448 46.7435C27.0448 46.1578 27.7961 45.1507 27.7961 45.1507C27.7961 45.1507 28.2763 44.9379 28.4113 44.3925C28.5021 44.0258 28.3014 43.6078 28.1949 43.5413C28.4796 42.6593 29.0482 39.6186 25.8152 39.5091C25.8008 39.507 25.7865 39.5074 25.7723 39.5078C22.5189 39.618 23.0875 42.6586 23.3723 43.5406Z" stroke="#2F95D9" stroke-linecap="round" stroke-linejoin="round"/>
<path fill-rule="evenodd" clip-rule="evenodd" d="M42.8051 43.5406C42.6986 43.6072 42.4979 44.0252 42.5887 44.3919C42.7237 44.9372 43.2039 45.1501 43.2039 45.1501C43.2039 45.1501 43.9552 46.1572 43.9552 46.7428C43.9552 47.3285 43.9552 47.556 43.7539 48.0446C43.5525 48.5332 39.6006 49.1189 39.4329 51.9994H45.1849L51 52C50.8323 49.1196 46.8803 48.5339 46.679 48.0453C46.4777 47.5567 46.4777 47.3291 46.4777 46.7435C46.4777 46.1578 47.229 45.1507 47.229 45.1507C47.229 45.1507 47.7092 44.9379 47.8442 44.3925C47.9349 44.0258 47.7343 43.6078 47.6278 43.5413C47.9125 42.6593 48.4811 39.6186 45.248 39.5091C45.2336 39.507 45.2194 39.5074 45.2051 39.5078C41.9518 39.618 42.5204 42.6586 42.8051 43.5406Z" stroke="#2F95D9" stroke-linecap="round" stroke-linejoin="round"/>
<path fill-rule="evenodd" clip-rule="evenodd" d="M33.0886 25.0332C32.982 25.0998 32.7814 25.5177 32.8722 25.8844C33.0072 26.4298 33.4874 26.6427 33.4874 26.6427C33.4874 26.6427 34.2386 27.6497 34.2386 28.2354C34.2386 28.8211 34.2386 29.0486 34.0373 29.5372C33.836 30.0258 29.8841 30.6115 29.7163 33.4919H35.4683L41.2835 33.4925C41.1157 30.6121 37.1638 30.0264 36.9625 29.5378C36.7611 29.0492 36.7611 28.8217 36.7611 28.236C36.7611 27.6504 37.5124 26.6433 37.5124 26.6433C37.5124 26.6433 37.9926 26.4304 38.1276 25.8851C38.2184 25.5184 38.0177 25.1004 37.9112 25.0338C38.1959 24.1518 38.7646 21.1112 35.5315 21.0016C35.5171 20.9995 35.5028 20.9999 35.4886 21.0003C32.2352 21.1106 32.8039 24.1512 33.0886 25.0332Z" stroke="#2F95D9" stroke-linecap="round" stroke-linejoin="round"/>
<path d="M35.7314 41.3582L39.4329 43.6716" stroke="#2F95D9" stroke-linecap="round" stroke-linejoin="round"/>
<path d="M35.7313 37.194V41.204L31.5671 43.6716" stroke="#2F95D9" stroke-linecap="round" stroke-linejoin="round"/>
<circle cx="36" cy="36" r="35.5" stroke="#2F95D9"/>
</svg>
