<svg width="87" height="87" viewBox="0 0 87 87" fill="none" xmlns="http://www.w3.org/2000/svg">
<circle cx="43.5" cy="43.5" r="43.5" fill="#C4C4C4" fill-opacity="0.5"/>
<path fill-rule="evenodd" clip-rule="evenodd" d="M59 44C59 52.8366 51.8366 60 43 60C34.1634 60 27 52.8366 27 44C27 35.1634 34.1634 28 43 28C51.8366 28 59 35.1634 59 44ZM57 44C57 51.732 50.732 58 43 58C35.268 58 29 51.732 29 44C29 36.268 35.268 30 43 30C50.732 30 57 36.268 57 44Z" fill="#1F699B"/>
<path fill-rule="evenodd" clip-rule="evenodd" d="M43 37C42.4477 37 42 37.4477 42 38V43H37C36.4477 43 36 43.4477 36 44C36 44.5523 36.4477 45 37 45H42V50C42 50.5523 42.4477 51 43 51C43.5523 51 44 50.5523 44 50V45H49C49.5523 45 50 44.5523 50 44C50 43.4477 49.5523 43 49 43H44V38C44 37.4477 43.5523 37 43 37Z" fill="#1F699B"/>
</svg>
