<svg width="32" height="32" viewBox="0 0 32 32" fill="none" xmlns="http://www.w3.org/2000/svg">
<circle cx="16" cy="16" r="15" stroke="#EBEBEB" stroke-width="2"/>
<path d="M21.9837 17.375C21.7912 17.375 21.59 17.3137 21.3975 17.27C21.008 17.1829 20.625 17.0689 20.2512 16.9287C19.8453 16.7811 19.3991 16.7887 18.9985 16.9503C18.5979 17.1118 18.2712 17.4158 18.0812 17.8037L17.8887 18.2062C17.039 17.7243 16.2539 17.1363 15.5525 16.4562C14.8725 15.7548 14.2844 14.9698 13.8025 14.12L14.205 13.9362C14.5929 13.7463 14.8969 13.4196 15.0585 13.019C15.22 12.6184 15.2277 12.1722 15.08 11.7662C14.941 11.3892 14.827 11.0033 14.7387 10.6112C14.695 10.4187 14.66 10.2175 14.6337 10.025C14.5275 9.40867 14.2047 8.85052 13.7234 8.45108C13.2422 8.05164 12.6341 7.83716 12.0087 7.84625H9.375C9.00509 7.84577 8.63925 7.92347 8.30148 8.07426C7.9637 8.22505 7.6616 8.44554 7.415 8.72125C7.16328 9.00445 6.97585 9.33878 6.86559 9.70128C6.75533 10.0638 6.72485 10.4459 6.77625 10.8212C7.25189 14.4631 8.91581 17.8463 11.51 20.4462C14.1099 23.0404 17.4931 24.7044 21.135 25.18C21.2486 25.1887 21.3627 25.1887 21.4762 25.18C22.1215 25.1809 22.7445 24.9442 23.2262 24.515C23.502 24.2684 23.7224 23.9663 23.8732 23.6285C24.024 23.2907 24.1017 22.9249 24.1012 22.555V19.93C24.0965 19.3254 23.8832 18.741 23.4974 18.2755C23.1116 17.8099 22.577 17.4919 21.9837 17.375ZM22.4125 22.625C22.4122 22.7471 22.3864 22.8678 22.3366 22.9793C22.2869 23.0908 22.2144 23.1907 22.1237 23.2725C22.0278 23.3599 21.9137 23.4248 21.7896 23.4627C21.6655 23.5005 21.5346 23.5103 21.4062 23.4912C18.141 23.0648 15.1065 21.5767 12.77 19.2562C10.4315 16.9178 8.93052 13.8727 8.5 10.5937C8.48099 10.4654 8.49075 10.3345 8.52859 10.2104C8.56642 10.0863 8.63138 9.97215 8.71875 9.87625C8.80154 9.78451 8.90283 9.71134 9.01594 9.66157C9.12905 9.6118 9.25142 9.58656 9.375 9.5875H12C12.2023 9.58256 12.4 9.64786 12.5595 9.7723C12.7191 9.89674 12.8305 10.0726 12.875 10.27C12.875 10.5062 12.9537 10.7512 13.0062 10.9875C13.1074 11.4459 13.2419 11.8962 13.4087 12.335L12.1837 12.9125C11.9732 13.0092 11.8096 13.1854 11.7287 13.4025C11.6412 13.6155 11.6412 13.8545 11.7287 14.0675C12.988 16.7649 15.1563 18.9332 17.8537 20.1925C18.0668 20.28 18.3057 20.28 18.5187 20.1925C18.7359 20.1117 18.9121 19.9481 19.0087 19.7375L19.56 18.5125C20.0114 18.6771 20.4733 18.8116 20.9425 18.915C21.17 18.9675 21.415 19.0112 21.6512 19.0462C21.8486 19.0907 22.0245 19.2022 22.1489 19.3617C22.2734 19.5213 22.3387 19.719 22.3337 19.9212L22.4125 22.625ZM17.25 7.75C17.0487 7.75 16.8387 7.75 16.6375 7.75C16.4054 7.76973 16.1907 7.88083 16.0406 8.05887C15.8904 8.23691 15.8171 8.46731 15.8369 8.69937C15.8566 8.93144 15.9677 9.14616 16.1457 9.29631C16.3238 9.44646 16.5542 9.51973 16.7862 9.5H17.25C18.6424 9.5 19.9777 10.0531 20.9623 11.0377C21.9469 12.0223 22.5 13.3576 22.5 14.75C22.5 14.9075 22.5 15.0562 22.5 15.2137C22.4806 15.4446 22.5535 15.6737 22.7028 15.8508C22.8521 16.028 23.0655 16.1387 23.2962 16.1587H23.3662C23.5853 16.1596 23.7967 16.0783 23.9587 15.9309C24.1207 15.7835 24.2215 15.5807 24.2412 15.3625C24.2412 15.1612 24.2412 14.9512 24.2412 14.75C24.2413 12.895 23.505 11.1158 22.1941 9.80334C20.8832 8.49084 19.105 7.75232 17.25 7.75ZM19 14.75C19 14.9821 19.0922 15.2046 19.2563 15.3687C19.4204 15.5328 19.6429 15.625 19.875 15.625C20.1071 15.625 20.3296 15.5328 20.4937 15.3687C20.6578 15.2046 20.75 14.9821 20.75 14.75C20.75 13.8217 20.3812 12.9315 19.7249 12.2751C19.0685 11.6187 18.1783 11.25 17.25 11.25C17.0179 11.25 16.7954 11.3422 16.6313 11.5063C16.4672 11.6704 16.375 11.8929 16.375 12.125C16.375 12.3571 16.4672 12.5796 16.6313 12.7437C16.7954 12.9078 17.0179 13 17.25 13C17.7141 13 18.1592 13.1844 18.4874 13.5126C18.8156 13.8408 19 14.2859 19 14.75Z" fill="#EBEBEB"/>
</svg>
