<svg width="32" height="32" viewBox="0 0 32 32" fill="none" xmlns="http://www.w3.org/2000/svg">
<path d="M30.7265 9.83638C28.2421 4.01431 22.469 0 15.9375 0C7.05437 0 0 7.32856 0 16.0625C0 24.8713 7.12806 32 15.9375 32C24.681 32 32 24.9357 32 16.0625C32 13.9115 31.5716 11.8168 30.7265 9.83638ZM29.2974 11.2878C27.6554 9.98806 25.5334 9.08131 23.5017 8.50419C22.925 6.47038 22.0201 4.34812 20.7096 2.70156C24.699 4.13087 27.8674 7.29869 29.2974 11.2878ZM23.5737 15.1256C24.0854 15.1317 24.5 15.5493 24.5 16.0625C24.5 16.5757 24.0854 16.9933 23.5737 16.9994C23.5701 16.9992 23.5666 16.9984 23.5629 16.9982C23.5472 16.9972 23.5319 16.9979 23.5164 16.9977C23.0211 16.9734 22.6254 16.5642 22.6251 16.0631C22.6251 16.0629 22.6251 16.0627 22.6251 16.0625C22.6251 16.0623 22.6251 16.0621 22.6251 16.0619C22.6254 15.5672 23.0109 15.1621 23.4972 15.1283C23.4994 15.1283 23.5016 15.1286 23.5038 15.1286C23.5234 15.1286 23.5431 15.128 23.5629 15.1267C23.5666 15.1265 23.5701 15.1258 23.5737 15.1256ZM16.875 2.03063C18.6717 2.624 20.3126 4.87669 21.3768 8.00263C19.939 7.72781 18.4256 7.56256 16.875 7.51494V2.03063ZM16.875 9.39075C18.6504 9.44844 20.3671 9.66963 21.9577 10.0401C22.2099 11.1175 22.3972 12.2642 22.5073 13.4562C21.7652 13.7577 21.1801 14.3669 20.9112 15.125H16.875V9.39075ZM16.875 17H20.9112C21.1801 17.7581 21.7653 18.3674 22.5075 18.6689C22.4025 19.8128 22.2267 20.9207 21.9858 21.9706C20.894 22.2189 19.7386 22.4001 18.5441 22.5081C18.2427 21.7656 17.6333 21.1802 16.875 20.9112V17ZM11.1608 2.71825C10.5306 3.52494 9.95775 4.499 9.45938 5.62712C9.43125 5.62631 9.40331 5.625 9.375 5.625C7.58769 5.625 6.23494 7.28569 6.63119 9.05294C5.08625 9.63737 3.76688 10.3726 2.72163 11.2125C4.14594 7.27431 7.25319 4.14638 11.1608 2.71825ZM10.3125 8.4375C10.3125 8.95444 9.89194 9.375 9.375 9.375C8.85806 9.375 8.4375 8.95444 8.4375 8.4375C8.4375 7.92056 8.85806 7.5 9.375 7.5C9.89194 7.5 10.3125 7.92056 10.3125 8.4375ZM7.66756 10.6703C7.75144 10.7346 7.83875 10.7944 7.92963 10.8491C7.70044 12.1897 7.55781 13.6613 7.5145 15.125H2.02763C2.58906 13.3861 4.66687 11.7266 7.66756 10.6703ZM7.51419 17C7.55975 18.5534 7.71806 20.0404 7.97425 21.4339C4.83875 20.4015 2.61294 18.7938 2.02806 17H7.51419ZM2.70719 20.8289C4.34031 22.1107 6.435 22.9797 8.45356 23.5362C9.09444 25.8649 10.0297 27.8393 11.1731 29.2935C7.24612 27.8751 4.12619 24.7556 2.70719 20.8289ZM15 29.9663C12.7738 29.2194 11.296 26.2402 10.561 24.0191C11.4301 24.1802 12.3288 24.3023 13.2474 24.3831C13.508 25.2357 14.1636 25.9171 15 26.2138V29.9663ZM15 20.9112C14.2417 21.1802 13.6324 21.7655 13.3309 22.5079C12.1661 22.402 11.0502 22.2262 10.0031 21.9908C9.65381 20.4326 9.44531 18.7478 9.39025 17H15V20.9112ZM15 15.125H9.39025C9.43213 13.7863 9.56188 12.4452 9.76825 11.2219C10.7124 11.0892 11.5078 10.4864 11.9086 9.65806C12.914 9.51313 13.9491 9.42469 15 9.39125V15.125ZM15 7.5155C14.0181 7.54488 13.0483 7.62 12.1001 7.741C11.9555 7.17544 11.6386 6.6785 11.2094 6.30825C12.2361 4.02069 13.5877 2.50538 15 2.03331V7.5155ZM15.9375 24.5C15.4243 24.5 15.0067 24.0854 15.0006 23.5737C15.0008 23.5701 15.0016 23.5666 15.0017 23.5629C15.0027 23.5474 15.0021 23.5322 15.0023 23.5169C15.0263 23.0212 15.4359 22.625 15.9375 22.625C16.4391 22.625 16.8487 23.0212 16.8727 23.5169C16.8729 23.5323 16.8722 23.5475 16.8732 23.5629C16.8735 23.5666 16.8742 23.5701 16.8744 23.5737C16.8683 24.0854 16.4507 24.5 15.9375 24.5ZM16.875 29.9718V26.2138C17.7114 25.9171 18.3669 25.2358 18.6276 24.3831C19.5804 24.2996 20.5126 24.1716 21.4137 24.0023C20.6556 26.2419 19.12 29.2428 16.875 29.9718ZM20.7467 29.2926C22.0642 27.6414 22.957 25.5312 23.5247 23.5146C25.5367 22.9561 27.6549 22.0794 29.2983 20.7926C27.8732 24.7355 24.7196 27.8694 20.7467 29.2926ZM24.0174 21.4069C24.1796 20.5471 24.302 19.6591 24.3826 18.7527C25.2355 18.4922 25.9171 17.824 26.2138 16.9875H29.9654C29.2234 19.1777 26.2269 20.6723 24.0174 21.4069ZM26.2138 15.125C25.9171 14.2885 25.2355 13.6328 24.3827 13.3723C24.2994 12.433 24.1711 11.5127 24.0008 10.6219C26.2388 11.3866 29.2184 12.9066 29.9655 15.125H26.2138Z" fill="#EBEBEB"/>
</svg>
