<svg width="32" height="32" viewBox="0 0 32 32" fill="none" xmlns="http://www.w3.org/2000/svg">
<rect x="0.5" y="0.5" width="31" height="31" rx="2.5" stroke="#EBEBEB"/>
<path d="M24.6374 11.875C24.5275 11.5 24.3297 11.1771 24.044 10.9062C23.7582 10.6354 23.4176 10.4479 23.022 10.3438C22.4505 10.1979 21.1099 10.0938 19 10.0312L16 10L13 10.0312C10.8901 10.0938 9.54945 10.1979 8.97802 10.3438C8.58242 10.4479 8.24176 10.6354 7.95604 10.9062C7.67033 11.1771 7.47253 11.5 7.36264 11.875C7.20879 12.4375 7.0989 13.2917 7.03297 14.4375C7.01099 15.0208 7 15.5417 7 16L7.03297 17.5625C7.0989 18.7292 7.20879 19.5938 7.36264 20.1562C7.47253 20.5104 7.67033 20.8229 7.95604 21.0938C8.24176 21.3646 8.58242 21.5521 8.97802 21.6562C9.54945 21.8021 10.8901 21.9062 13 21.9688L16 22L19 21.9688C21.1099 21.9062 22.4505 21.8021 23.022 21.6562C23.4176 21.5521 23.7582 21.3646 24.044 21.0938C24.3297 20.8229 24.5275 20.5104 24.6374 20.1562C24.7912 19.5938 24.9011 18.7292 24.967 17.5625L25 16L24.967 14.4375C24.9011 13.2917 24.7912 12.4375 24.6374 11.875ZM14.1538 18.5625V13.4688L18.8681 16L14.1538 18.5625Z" fill="#D80027"/>
</svg>
