<svg width="18" height="12" fill="none" version="1.1" viewBox="0 0 18 12" xmlns="http://www.w3.org/2000/svg">
<path d="m17.637 1.875c-0.1099-0.375-0.3077-0.6979-0.5934-0.9688-0.2858-0.2708-0.6264-0.4583-1.022-0.5624-0.5715-0.1459-1.9121-0.25-4.022-0.3126l-3-0.0312-3 0.0312c-2.1099 0.0626-3.4506 0.1667-4.022 0.3126-0.3956 0.1041-0.73626 0.2916-1.022 0.5624-0.28571 0.2709-0.48351 0.5938-0.5934 0.9688-0.15385 0.5625-0.26374 1.4167-0.32967 2.5625-0.02198 0.5833-0.03297 1.1042-0.03297 1.5625l0.03297 1.5625c0.06593 1.1667 0.17582 2.0313 0.32967 2.5937 0.10989 0.3542 0.30769 0.6667 0.5934 0.9376 0.28572 0.2708 0.62638 0.4583 1.022 0.5624 0.57143 0.1459 1.9121 0.25 4.022 0.3126l3 0.0312 3-0.0312c2.1099-0.0626 3.4505-0.1667 4.022-0.3126 0.3956-0.1041 0.7362-0.2916 1.022-0.5624 0.2857-0.2709 0.4835-0.5834 0.5934-0.9376 0.1538-0.5624 0.2637-1.427 0.3296-2.5937l0.033-1.5625-0.033-1.5625c-0.0659-1.1458-0.1758-2-0.3296-2.5625zm-10.484 6.6875v-5.0937l4.7143 2.5312z" fill="#d80027"/>
</svg>
