<svg width="24" height="25" viewBox="0 0 24 25" fill="none" xmlns="http://www.w3.org/2000/svg">
<path d="M24 13.825L19.0407 12.2V11.275H14.9293V12.9H13.6959C12.1028 12.9 10.7923 11.625 10.7923 10.075V0H0V13.3C0 18.85 4.65096 23.375 10.3555 23.375H14.9036V25H19.0407V24.075L24 22.45V13.825ZM9.94433 5.65H0.82227V4.85H9.94433V5.65ZM9.94433 4.025H0.82227V3.225H9.94433V4.025ZM9.94433 0.8V2.425H0.82227V0.8H9.94433ZM10.3555 22.575C5.08779 22.575 0.82227 18.425 0.82227 13.3V6.45H9.94433V10.075C9.94433 12.075 11.6146 13.7 13.6702 13.7H14.9036V22.575H10.3555ZM15.7516 23.375V12.9V12.1H18.2441V24.2H15.7516V23.375ZM23.1777 21.9L19.0664 23.25V13.05L23.1777 14.4V21.9Z" fill="white"/>
</svg>
